<svg width="41" height="48" viewBox="0 0 41 48" fill="none" xmlns="http://www.w3.org/2000/svg">
<path opacity="0.35" d="M11.0519 33.4183H8.00424C7.19595 33.4183 6.42078 33.0967 5.84923 32.5242C5.27769 31.9517 4.9566 31.1753 4.9566 30.3657V25.787C4.9566 24.9774 5.27769 24.201 5.84923 23.6285C6.42078 23.0561 7.19595 22.7345 8.00424 22.7345H11.0519C11.8602 22.7345 12.6353 23.0561 13.2069 23.6285C13.7784 24.201 14.0995 24.9774 14.0995 25.787V30.3657C14.0995 31.1753 13.7784 31.9517 13.2069 32.5242C12.6353 33.0967 11.8602 33.4183 11.0519 33.4183ZM32.3853 33.4183H29.3377C28.5294 33.4183 27.7542 33.0967 27.1827 32.5242C26.6111 31.9517 26.29 31.1753 26.29 30.3657V21.2082C26.29 20.3986 26.6111 19.6222 27.1827 19.0497C27.7542 18.4773 28.5294 18.1557 29.3377 18.1557H32.3853C33.1936 18.1557 33.9688 18.4773 34.5403 19.0497C35.1118 19.6222 35.4329 20.3986 35.4329 21.2082V30.3657C35.4329 31.1753 35.1118 31.9517 34.5403 32.5242C33.9688 33.0967 33.1936 33.4183 32.3853 33.4183ZM21.7186 33.4183H18.671C17.8627 33.4183 17.0875 33.0967 16.5159 32.5242C15.9444 31.9517 15.6233 31.1753 15.6233 30.3657V16.6294C15.6233 15.8198 15.9444 15.0434 16.5159 14.471C17.0875 13.8985 17.8627 13.5769 18.671 13.5769H21.7186C22.5269 13.5769 23.302 13.8985 23.8736 14.471C24.4451 15.0434 24.7662 15.8198 24.7662 16.6294V30.3657C24.7662 31.1753 24.4451 31.9517 23.8736 32.5242C23.302 33.0967 22.5269 33.4183 21.7186 33.4183Z" fill="#F7C337"/>
<path d="M9.55853 15.1032C9.22306 15.1039 8.89672 14.9938 8.63013 14.7898C8.36354 14.5858 8.1716 14.2995 8.08408 13.9751C7.99656 13.6507 8.01836 13.3065 8.14609 12.9958C8.27382 12.6851 8.50034 12.4253 8.79053 12.2567L19.4298 6.09062C19.7879 5.88457 20.2131 5.83421 20.6062 5.94257L31.2729 8.95388C31.6619 9.06378 31.9914 9.32395 32.1888 9.67715C32.3863 10.0304 32.4356 10.4477 32.3259 10.8373C32.2161 11.2269 31.9564 11.5569 31.6037 11.7547C31.2511 11.9525 30.8345 12.0018 30.4455 11.8919L20.3974 9.05614L10.3204 14.8971C10.0891 15.032 9.8262 15.1031 9.55853 15.1032V15.1032Z" fill="#F7C337"/>
<path d="M30.8615 13.5767C31.6698 13.5767 32.445 13.2551 33.0165 12.6827C33.5881 12.1102 33.9092 11.3338 33.9092 10.5242C33.9092 9.71464 33.5881 8.93822 33.0165 8.36577C32.445 7.79331 31.6698 7.47171 30.8615 7.47171C30.0532 7.47171 29.2781 7.79331 28.7065 8.36577C28.135 8.93822 27.8139 9.71464 27.8139 10.5242C27.8139 11.3338 28.135 12.1102 28.7065 12.6827C29.2781 13.2551 30.0532 13.5767 30.8615 13.5767V13.5767ZM20.1948 10.5242C21.0031 10.5242 21.7783 10.2026 22.3498 9.63016C22.9214 9.0577 23.2424 8.28128 23.2424 7.47171C23.2424 6.66213 22.9214 5.88571 22.3498 5.31325C21.7783 4.74079 21.0031 4.41919 20.1948 4.41919C19.3865 4.41919 18.6114 4.74079 18.0398 5.31325C17.4683 5.88571 17.1472 6.66213 17.1472 7.47171C17.1472 8.28128 17.4683 9.0577 18.0398 9.63016C18.6114 10.2026 19.3865 10.5242 20.1948 10.5242ZM9.5281 16.6293C10.3364 16.6293 11.1116 16.3077 11.6831 15.7352C12.2546 15.1627 12.5757 14.3863 12.5757 13.5767C12.5757 12.7672 12.2546 11.9907 11.6831 11.4183C11.1116 10.8458 10.3364 10.5242 9.5281 10.5242C8.71982 10.5242 7.94464 10.8458 7.3731 11.4183C6.80156 11.9907 6.48047 12.7672 6.48047 13.5767C6.48047 14.3863 6.80156 15.1627 7.3731 15.7352C7.94464 16.3077 8.71982 16.6293 9.5281 16.6293V16.6293Z" fill="#F7C337"/>
<path d="M4.59809 41.3173C4.59809 41.6953 4.68078 42.0202 4.84616 42.2919C5.01745 42.5636 5.24485 42.7733 5.52836 42.9209C5.81187 43.0627 6.11901 43.1336 6.44977 43.1336C6.88685 43.1336 7.25305 43.0509 7.54838 42.8855C7.84961 42.7201 8.10063 42.5281 8.30145 42.3096V43.9398C8.05338 44.1288 7.78168 44.2794 7.48636 44.3916C7.19103 44.5039 6.81597 44.56 6.36117 44.56C5.69965 44.56 5.11195 44.4241 4.59809 44.1524C4.08422 43.8807 3.68258 43.5027 3.39316 43.0184C3.10375 42.5281 2.95904 41.9611 2.95904 41.3173C2.95904 40.6735 3.10375 40.1094 3.39316 39.6251C3.68258 39.1349 4.08422 38.7539 4.59809 38.4822C5.11195 38.2105 5.69965 38.0746 6.36117 38.0746C6.81597 38.0746 7.19103 38.1308 7.48636 38.243C7.78168 38.3552 8.05338 38.5058 8.30145 38.6948V40.325C8.10063 40.1006 7.84961 39.9086 7.54838 39.7491C7.25305 39.5838 6.88685 39.5011 6.44977 39.5011C6.11901 39.5011 5.81187 39.5749 5.52836 39.7226C5.24485 39.8643 5.01745 40.071 4.84616 40.3427C4.68078 40.6085 4.59809 40.9334 4.59809 41.3173ZM9.51696 38.2164H11.0143V40.4756H13.681V38.2164H15.1783V44.4182H13.681V41.8223H11.0143V44.4182H9.51696V38.2164ZM20.646 44.4182L20.0612 43.2221H18.0944L17.5185 44.4182H15.8174L19.0866 37.8266L22.347 44.4182H20.646ZM19.0866 40.5022L18.3956 42.0792H19.7688L19.0866 40.5022ZM22.9969 38.2164H25.2561C26.0476 38.2164 26.6471 38.4054 27.0547 38.7834C27.4681 39.1614 27.6748 39.6487 27.6748 40.2453C27.6748 40.6705 27.5685 41.0456 27.3559 41.3705C27.1492 41.6894 26.842 41.9257 26.4345 42.0792L28.0469 44.4182H26.2839L24.9549 42.2742H24.4942V44.4182H22.9969V38.2164ZM25.1498 39.4922H24.4942V41.1047H25.1498C25.451 41.1047 25.6873 41.0338 25.8586 40.892C26.0299 40.7503 26.1155 40.5524 26.1155 40.2984C26.1155 40.0386 26.0299 39.8407 25.8586 39.7048C25.6873 39.5631 25.451 39.4922 25.1498 39.4922ZM28.113 39.5631V38.2164H33.0213V39.5631H31.3203V44.4182H29.8141V39.5631H28.113ZM34.3817 42.2387C34.5707 42.5754 34.7922 42.8441 35.0462 43.045C35.3061 43.2399 35.5925 43.3373 35.9056 43.3373C36.13 43.3373 36.3102 43.2842 36.446 43.1779C36.5878 43.0656 36.6587 42.915 36.6587 42.726C36.6587 42.5724 36.6173 42.4454 36.5346 42.345C36.4519 42.2446 36.319 42.1501 36.1359 42.0615C35.9587 41.9729 35.7195 41.8725 35.4183 41.7603C35.2647 41.7012 35.0934 41.6244 34.9044 41.5299C34.7154 41.4354 34.5323 41.3144 34.3551 41.1667C34.1839 41.019 34.0421 40.8389 33.9299 40.6262C33.8176 40.4077 33.7615 40.1478 33.7615 39.8466C33.7615 39.4745 33.856 39.1585 34.045 38.8986C34.24 38.6328 34.4998 38.429 34.8247 38.2873C35.1555 38.1455 35.5217 38.0746 35.9233 38.0746C36.3427 38.0746 36.703 38.1426 37.0042 38.2784C37.3054 38.4143 37.5565 38.5856 37.7573 38.7923C37.9581 38.999 38.1117 39.2087 38.218 39.4213L37.0751 40.0592C36.9392 39.8348 36.7768 39.6576 36.5878 39.5276C36.3988 39.3918 36.1832 39.3239 35.941 39.3239C35.7284 39.3239 35.566 39.3711 35.4537 39.4656C35.3474 39.5542 35.2943 39.6664 35.2943 39.8023C35.2943 40.0149 35.4124 40.1892 35.6487 40.325C35.8908 40.455 36.2275 40.5967 36.6587 40.7503C36.9481 40.8507 37.2109 40.9865 37.4472 41.1578C37.6893 41.3232 37.8813 41.5299 38.0231 41.778C38.1707 42.0202 38.2446 42.3126 38.2446 42.6551C38.2446 43.0745 38.1353 43.4318 37.9167 43.7272C37.6982 44.0166 37.4117 44.2381 37.0574 44.3916C36.7089 44.5393 36.3397 44.6131 35.9499 44.6131C35.5482 44.6131 35.1732 44.5422 34.8247 44.4005C34.4821 44.2528 34.1809 44.0579 33.921 43.8158C33.667 43.5677 33.4721 43.293 33.3363 42.9918L34.3817 42.2387Z" fill="#7F8FA9"/>
</svg>
