<svg width="40" height="48" viewBox="0 0 40 48" fill="none" xmlns="http://www.w3.org/2000/svg">
<path d="M4.84091 40.9755C4.84091 40.4971 4.9236 40.06 5.08898 39.6643C5.26027 39.2685 5.49653 38.926 5.79776 38.6365C6.1049 38.3471 6.45929 38.1256 6.86093 37.9721C7.26848 37.8126 7.70851 37.7329 8.18103 37.7329C8.65945 37.7329 9.10244 37.8126 9.50999 37.9721C9.91753 38.1256 10.269 38.3471 10.5643 38.6365C10.8655 38.926 11.0988 39.2685 11.2642 39.6643C11.4355 40.06 11.5211 40.4971 11.5211 40.9755C11.5211 41.4539 11.4385 41.894 11.2731 42.2956C11.1136 42.6973 10.8832 43.0457 10.582 43.3411C10.2808 43.6364 9.92639 43.8667 9.51885 44.0321C9.1172 44.1916 8.67127 44.2713 8.18103 44.2713C7.6967 44.2713 7.25076 44.1916 6.84321 44.0321C6.43566 43.8667 6.08127 43.6364 5.78004 43.3411C5.47881 43.0457 5.2455 42.6973 5.08012 42.2956C4.92065 41.894 4.84091 41.4539 4.84091 40.9755ZM6.4268 40.9755C6.4268 41.3417 6.49768 41.6666 6.63943 41.9501C6.7871 42.2277 6.99382 42.4462 7.25962 42.6057C7.52541 42.7652 7.83254 42.8449 8.18103 42.8449C8.53542 42.8449 8.84255 42.7652 9.10244 42.6057C9.36232 42.4462 9.56314 42.2277 9.7049 41.9501C9.85256 41.6666 9.92639 41.3417 9.92639 40.9755C9.92639 40.6093 9.85552 40.2874 9.71376 40.0098C9.572 39.7263 9.37118 39.5048 9.1113 39.3453C8.85141 39.1858 8.54132 39.1061 8.18103 39.1061C7.83254 39.1061 7.52541 39.1858 7.25962 39.3453C6.99382 39.5048 6.7871 39.7263 6.63943 40.0098C6.49768 40.2874 6.4268 40.6093 6.4268 40.9755ZM12.4717 37.8746H14.7309C15.5224 37.8746 16.1219 38.0636 16.5294 38.4416C16.9429 38.8196 17.1496 39.3069 17.1496 39.9035C17.1496 40.3288 17.0433 40.7038 16.8307 41.0287C16.624 41.3476 16.3168 41.5839 15.9093 41.7374L17.5217 44.0764H15.7587L14.4297 41.9324H13.969V44.0764H12.4717V37.8746ZM14.6246 39.1504H13.969V40.7629H14.6246C14.9258 40.7629 15.1621 40.692 15.3334 40.5502C15.5047 40.4085 15.5903 40.2106 15.5903 39.9566C15.5903 39.6968 15.5047 39.4989 15.3334 39.363C15.1621 39.2213 14.9258 39.1504 14.6246 39.1504ZM20.423 44.0764H18.208V37.8746H20.423C21.1022 37.8746 21.6899 38.0016 22.186 38.2556C22.6822 38.5036 23.0661 38.861 23.3378 39.3276C23.6095 39.7883 23.7454 40.3376 23.7454 40.9755C23.7454 41.6134 23.6095 42.1657 23.3378 42.6323C23.0661 43.093 22.6822 43.4503 22.186 43.7043C21.6899 43.9524 21.1022 44.0764 20.423 44.0764ZM20.3698 39.2124H19.7585V42.7386H20.3698C20.6887 42.7386 20.987 42.6854 21.2646 42.5791C21.5422 42.4669 21.7667 42.2838 21.938 42.0298C22.1093 41.7699 22.1949 41.4185 22.1949 40.9755C22.1949 40.5325 22.1093 40.184 21.938 39.9301C21.7667 39.6702 21.5422 39.4871 21.2646 39.3808C20.987 39.2685 20.6887 39.2124 20.3698 39.2124ZM24.7057 37.8746H28.8255V39.1061H26.1499V40.2136H28.6483V41.4274H26.1499V42.8449H28.8255V44.0764H24.7057V37.8746ZM30.0441 37.8746H32.3033C33.0948 37.8746 33.6943 38.0636 34.1018 38.4416C34.5153 38.8196 34.722 39.3069 34.722 39.9035C34.722 40.3288 34.6157 40.7038 34.403 41.0287C34.1963 41.3476 33.8892 41.5839 33.4816 41.7374L35.0941 44.0764H33.331L32.0021 41.9324H31.5414V44.0764H30.0441V37.8746ZM32.197 39.1504H31.5414V40.7629H32.197C32.4982 40.7629 32.7345 40.692 32.9058 40.5502C33.077 40.4085 33.1627 40.2106 33.1627 39.9566C33.1627 39.6968 33.077 39.4989 32.9058 39.363C32.7345 39.2213 32.4982 39.1504 32.197 39.1504Z" fill="#7F8FA9"/>
<path opacity="0.35" d="M31.8525 17.4124L22.9446 8.50447L24.9873 6.46184C25.726 5.72313 25.2068 4.45987 24.1618 4.45444L16.734 4.4192C16.5095 4.41831 16.287 4.46187 16.0794 4.54738C15.8718 4.63289 15.6832 4.75865 15.5244 4.91742C15.3656 5.07619 15.2399 5.26481 15.1544 5.47242C15.0689 5.68003 15.0253 5.90252 15.0262 6.12705L15.0614 13.5548C15.0669 14.5985 16.3301 15.119 17.0688 14.3803L19.1115 12.3376L28.0194 21.2455C28.2694 21.5044 28.5686 21.711 28.8993 21.853C29.23 21.9951 29.5857 22.0699 29.9457 22.073C30.3056 22.0761 30.6626 22.0075 30.9958 21.8712C31.3289 21.7349 31.6316 21.5336 31.8861 21.2791C32.1406 21.0246 32.3419 20.7219 32.4782 20.3888C32.6145 20.0556 32.6831 19.6986 32.68 19.3387C32.6769 18.9787 32.6021 18.623 32.46 18.2923C32.3179 17.9616 32.1114 17.6624 31.8525 17.4124V17.4124Z" fill="#F7C337"/>
<path d="M6.33242 18.5345L15.2403 27.4424L13.1977 29.4851C12.459 30.2238 12.9794 31.487 14.0231 31.4924L21.4509 31.5277C21.6754 31.5286 21.8979 31.485 22.1055 31.3995C22.3131 31.314 22.5017 31.1882 22.6605 31.0295C22.8193 30.8707 22.945 30.6821 23.0306 30.4745C23.1161 30.2669 23.1596 30.0444 23.1587 29.8198L23.1235 22.3921C23.1181 21.347 21.8548 20.8279 21.1161 21.5666L19.0735 23.6093L10.1656 14.7014C9.91551 14.4425 9.61638 14.2359 9.28564 14.0939C8.9549 13.9518 8.59919 13.877 8.23924 13.8739C7.87929 13.8708 7.52233 13.9393 7.18917 14.0756C6.85602 14.212 6.55334 14.4132 6.29881 14.6678C6.04428 14.9223 5.84299 15.225 5.70669 15.5581C5.57039 15.8913 5.5018 16.2483 5.50492 16.6082C5.50805 16.9681 5.58283 17.3239 5.72491 17.6546C5.86698 17.9853 6.0735 18.2845 6.33242 18.5345V18.5345Z" fill="#F7C337"/>
</svg>
