<svg width="124" height="20" viewBox="0 0 124 20" fill="none" xmlns="http://www.w3.org/2000/svg">
<path d="M18.5822 0.5625H9.48357L0 9.95217L9.48263 19.3418H18.5822L28.0685 9.95217L18.5822 0.5625Z" fill="white"/>
<path d="M14.0329 16.0826C13.2664 16.081 12.5077 15.9276 11.8008 15.6313C11.0938 15.3349 10.4526 14.9014 9.91412 14.3558C8.81959 13.2469 8.20568 11.7515 8.2052 10.1934H10.9681C10.9681 10.8061 11.1479 11.4047 11.4845 11.9141C11.8199 12.4223 12.2987 12.8194 12.8601 13.0549C13.4198 13.2892 14.0362 13.3507 14.6301 13.231C15.2259 13.1109 15.7724 12.8159 16.1996 12.3835C16.6288 11.9486 16.9203 11.3968 17.0376 10.7972C17.1559 10.1966 17.0953 9.57446 16.8634 9.00795C16.6326 8.4435 16.2399 7.95997 15.7348 7.61828C15.232 7.27807 14.639 7.09609 14.032 7.09575V4.3042C15.5775 4.3042 17.0601 4.92486 18.1526 6.02908C19.2476 7.1384 19.8609 8.63472 19.8597 10.1934C19.8597 11.7554 19.2456 13.2535 18.1526 14.3577C17.614 14.9035 16.9724 15.337 16.2651 15.633C15.5578 15.9291 14.7988 16.0819 14.032 16.0826H14.0329Z" fill="#041133"/>
<path d="M35.6118 5.3042C37.4811 5.3042 38.6164 6.24881 38.6164 7.73348C38.6248 8.03978 38.5561 8.34352 38.4161 8.61451C38.2755 8.88615 38.0693 9.11732 37.815 9.28492C39.1507 9.76654 39.7511 10.7022 39.7511 11.8491C39.7511 13.4679 38.4154 14.7407 36.6136 14.7407H33.4092L33.3424 14.6733V5.37163L33.4092 5.3042H35.6118V5.3042ZM34.6775 8.94779H35.6118C36.6135 8.94779 37.081 8.61066 37.081 7.74311C37.081 7.00078 36.6039 6.66364 35.6118 6.66364H34.6775V8.94779V8.94779ZM34.6775 13.4005H36.6136C37.6153 13.4005 38.2157 12.7937 38.2157 11.8491C38.2157 10.9719 37.6147 10.297 36.6136 10.297H34.6775V13.4005V13.4005ZM47.6291 11.5787C47.6294 12.2452 47.4338 12.897 47.0666 13.4532C46.7014 14.0067 46.1799 14.4392 45.5684 14.6957C44.9592 14.951 44.2876 15.0179 43.64 14.8877C42.991 14.7569 42.3958 14.4354 41.9306 13.9643C41.4628 13.4909 41.145 12.89 41.0168 12.2369C40.8881 11.5827 40.9542 10.905 41.2069 10.288C41.4585 9.67317 41.8863 9.14654 42.4366 8.77441C42.9842 8.404 43.6301 8.20586 44.2912 8.20546C44.7309 8.20109 45.1671 8.28539 45.5736 8.45333C45.9807 8.62094 46.3506 8.86945 46.6614 9.18346C46.9723 9.49942 47.2178 9.87364 47.3839 10.2847C47.55 10.6957 47.6333 11.1354 47.6291 11.5787V11.5787ZM42.3551 11.5787C42.3551 12.784 43.1558 13.6709 44.2912 13.6709C45.4259 13.6709 46.2266 12.7937 46.2266 11.5787C46.2266 10.365 45.4259 9.4872 44.2912 9.4872C43.1558 9.4872 42.3551 10.3644 42.3551 11.5787ZM54.7724 8.47517V9.68049L54.7057 9.74792H53.971C54.0982 10.0465 54.1662 10.367 54.1714 10.6919C54.1714 12.1091 53.1703 13.1886 51.6342 13.1886C51.3119 13.1937 50.9921 13.1244 50.6999 12.9863C50.6589 13.0185 50.6257 13.0594 50.6026 13.106C50.5795 13.1527 50.5671 13.2039 50.5663 13.256C50.5663 14.1332 54.8392 13.6606 54.8392 16.2247C54.8392 17.4294 53.6467 18.3162 51.7678 18.3162C49.8895 18.3162 48.4299 17.7768 48.4299 16.2921C48.4299 15.5498 49.0309 14.943 49.8323 14.4029C49.6721 14.3021 49.5394 14.1631 49.4461 13.9983C49.3528 13.8336 49.302 13.6482 49.2981 13.4589C49.3103 13.2592 49.367 13.0646 49.4638 12.8895C49.5607 12.7143 49.6953 12.5629 49.858 12.4463C49.6153 12.2244 49.4222 11.9537 49.2916 11.6519C49.1604 11.3493 49.0944 11.0224 49.0977 10.6925C49.1068 10.0232 49.3785 9.38415 49.8542 8.91312C50.0898 8.6813 50.3679 8.49893 50.6736 8.37563C50.9787 8.25253 51.3052 8.19141 51.6342 8.19583C51.9779 8.19993 52.3177 8.26854 52.636 8.39811H54.7057L54.7724 8.47517V8.47517ZM49.8317 16.3018C49.8317 16.8412 50.4328 17.1109 51.7678 17.1109C52.9031 17.1109 53.4368 16.7063 53.4368 16.2343C53.4368 15.3572 51.5681 15.0874 50.9002 14.8852C50.4328 15.1549 49.8323 15.7071 49.8323 16.3018H49.8317ZM50.4327 10.7022C50.4475 10.9365 50.5304 11.1613 50.6703 11.3488C50.8097 11.537 51.0004 11.6789 51.2194 11.7585C51.4377 11.8381 51.6747 11.851 51.9007 11.7964C52.1268 11.7418 52.3322 11.6211 52.4915 11.4496C52.6508 11.2775 52.7569 11.063 52.797 10.8319C52.8371 10.6008 52.8095 10.3631 52.7175 10.1473C52.6257 9.93237 52.4733 9.74875 52.2789 9.61885C52.0853 9.48969 51.858 9.42045 51.6252 9.41978C51.4628 9.42347 51.3027 9.45977 51.1546 9.52651C51.0064 9.59324 50.8732 9.68907 50.7628 9.80828C50.6514 9.92801 50.5648 10.0687 50.5081 10.2221C50.4515 10.3756 50.4259 10.5387 50.4327 10.7022V10.7022ZM61.4483 8.47517V9.68049L61.3815 9.74792H60.6469C60.7747 10.0465 60.8427 10.367 60.8472 10.6919C60.8472 12.1091 59.8461 13.1886 58.3107 13.1886C57.9877 13.1937 57.6686 13.1244 57.3757 12.9863C57.335 13.0187 57.3019 13.0596 57.2788 13.1062C57.2557 13.1528 57.2432 13.204 57.2422 13.256C57.2422 14.1332 61.5151 13.6606 61.5151 16.2247C61.5151 17.4294 60.3226 18.3162 58.4443 18.3162C56.5653 18.3162 55.1064 17.7768 55.1064 16.2921C55.1064 15.5498 55.7068 14.943 56.5082 14.4029C56.3475 14.3031 56.2145 14.1644 56.1216 13.9996C56.0284 13.8342 55.9777 13.6482 55.9739 13.4583C55.9857 13.2584 56.0422 13.0637 56.1393 12.8886C56.2363 12.7135 56.3713 12.5623 56.5345 12.4463C56.2914 12.2246 56.0982 11.9538 55.9675 11.6519C55.8364 11.3492 55.7704 11.0224 55.7736 10.6925C55.7781 10.3604 55.8472 10.0324 55.9771 9.72673C56.1068 9.42106 56.295 9.14493 56.5307 8.91312C56.7655 8.68214 57.0436 8.49986 57.3491 8.37676C57.6546 8.25366 57.9814 8.19217 58.3107 8.19583C58.6542 8.19999 58.9937 8.26861 59.3118 8.39811H61.3815L61.4483 8.47517V8.47517ZM56.5082 16.3018C56.5082 16.8412 57.1086 17.1109 58.4443 17.1109C59.579 17.1109 60.1133 16.7063 60.1133 16.2343C60.1133 15.3572 58.2439 15.0874 57.5761 14.8852C57.1086 15.1549 56.5082 15.7071 56.5082 16.3018V16.3018ZM57.1086 10.7022C57.1239 10.936 57.2061 11.1605 57.3456 11.3488C57.4855 11.537 57.6763 11.6789 57.8952 11.7585C58.1142 11.8381 58.3512 11.851 58.5766 11.7964C58.8026 11.7418 59.0081 11.6211 59.1674 11.4496C59.2865 11.3213 59.3763 11.1686 59.4308 11.0022C59.4853 10.8358 59.503 10.6595 59.4828 10.4856C59.4626 10.3116 59.4049 10.1441 59.3138 9.99463C59.2226 9.84511 59.1002 9.71713 58.9548 9.61949C58.7612 9.49026 58.5338 9.42102 58.3011 9.42042C58.1388 9.42394 57.9788 9.46009 57.8308 9.52673C57.6827 9.59336 57.5496 9.68911 57.4393 9.80828C57.3275 9.92782 57.2407 10.0684 57.1839 10.2219C57.1272 10.3754 57.1015 10.5387 57.1086 10.7022V10.7022ZM68.3245 14.0754C67.5809 14.6055 66.7002 14.91 65.788 14.9526C65.3362 14.9582 64.8879 14.8737 64.4692 14.7042C64.0504 14.5346 63.6696 14.2833 63.3491 13.965C63.026 13.6456 62.7688 13.266 62.592 12.8476C62.4147 12.4284 62.3209 11.9786 62.3159 11.5235C62.3159 9.69013 63.5848 8.20546 65.5209 8.20546C67.1898 8.20546 68.3245 9.69012 68.3245 11.5113C68.3277 11.6275 68.3052 11.7425 68.2577 11.8491L68.1242 11.9165H63.6779C63.7556 12.4177 64.0134 12.8733 64.4029 13.1982C64.7904 13.5213 65.2838 13.6896 65.788 13.6709C66.7201 13.6447 67.6057 13.2574 68.2577 12.5907L68.3245 12.6582V14.0761V14.0754ZM66.9895 10.837C66.9478 10.4715 66.7759 10.1333 66.5053 9.88406C66.2365 9.63617 65.8864 9.49504 65.5209 9.4872C65.1148 9.47542 64.7169 9.60225 64.3926 9.84681C64.0667 10.093 63.8332 10.4419 63.7299 10.837H66.9895V10.837ZM75.735 5.3042L75.8018 5.37163V14.6829L75.735 14.7503H74.5431L74.4764 14.6829V14.48C73.9987 14.789 73.4431 14.956 72.8742 14.9616C72.435 14.9613 72.0001 14.8738 71.5949 14.7043C71.1897 14.5347 70.8222 14.2865 70.5136 13.9739C69.8863 13.3385 69.5349 12.4813 69.5356 11.5883C69.5356 10.6938 69.8875 9.83589 70.5136 9.20337C70.8222 8.89069 71.1897 8.64234 71.5949 8.47269C72.0001 8.30305 72.4349 8.2155 72.8742 8.21509C73.4431 8.22064 73.9987 8.38766 74.4764 8.69671V5.37163L74.5431 5.3042H75.735ZM74.4667 10.1621C74.033 9.74907 73.4631 9.5092 72.8646 9.48785C71.7292 9.48785 70.9285 10.3644 70.9285 11.5787C70.9285 12.7937 71.7292 13.6709 72.8646 13.6709C73.1639 13.676 73.461 13.6187 73.7369 13.5025C74.0127 13.3862 74.2613 13.2137 74.4667 12.9959V10.1621ZM83.613 5.3042L83.6797 5.37163V6.57695L83.613 6.64438H79.2733V8.87073H82.5444L82.6112 8.93816V10.1428L82.5444 10.2103H79.2733V14.6829L79.2065 14.7503H78.0146L77.9479 14.6829V5.37163L78.0146 5.3042H83.613V5.3042ZM85.3487 6.04653L86.1495 6.85565V6.99114L85.3487 7.80026H85.2151L84.4137 6.99114V6.85629L85.2151 6.04717H85.3487V6.04653ZM85.8823 8.40774L85.9491 8.47517V14.6822L85.8823 14.7503H84.6905L84.6237 14.6829V8.47517L84.6905 8.40774H85.8823ZM89.3538 8.40774L89.4206 8.47517V8.67809C89.9267 8.37721 90.5016 8.21137 91.0902 8.19647C93.0905 8.19647 94.0917 9.34272 94.0917 11.1645V14.6829L94.0249 14.7503H92.833L92.7662 14.6829V11.2416C92.7662 10.1628 92.232 9.4872 91.0973 9.4872C90.4294 9.4872 89.7597 9.75691 89.4283 10.1621V14.6829L89.3615 14.7503H88.1575L88.0907 14.6829V8.47517L88.1575 8.40774H89.3538ZM96.4953 8.61066C97.0103 8.34194 97.5833 8.20306 98.1642 8.2061C99.6354 8.2061 100.634 9.08265 100.634 10.9044V14.6829L100.57 14.7503H99.3779L99.3085 14.6829V14.48C98.8539 14.7852 98.3207 14.9525 97.7731 14.9616C96.6378 14.9616 95.5725 14.4222 95.5725 13.1404C95.5725 11.2512 97.5086 10.7792 99.3085 10.6444C99.3085 9.90204 98.8314 9.49684 98.1167 9.49684C97.4013 9.49684 96.7836 9.69976 95.9706 10.2392L95.9038 10.1717L96.4953 8.61066V8.61066ZM99.2989 11.7816C97.8971 11.8491 96.9621 12.321 96.9621 12.9863C96.9621 13.4679 97.296 13.6606 97.8971 13.6606C98.392 13.6528 98.8759 13.5132 99.2989 13.256V11.7816V11.7816ZM103.915 8.40774L103.982 8.47517V8.67809C104.488 8.37755 105.062 8.21174 105.65 8.19647C107.653 8.19647 108.655 9.34272 108.655 11.1645V14.6829L108.588 14.7503H107.396L107.329 14.6829V11.2416C107.329 10.1628 106.795 9.4872 105.66 9.4872C105.351 9.47817 105.043 9.5335 104.757 9.64967C104.47 9.76526 104.209 9.93992 103.991 10.1621V14.6829L103.924 14.7503H102.733L102.666 14.6829V8.47517L102.733 8.40774H103.915V8.40774ZM115.789 10.3644C115.24 9.81288 114.497 9.49803 113.719 9.4872C113.444 9.47581 113.169 9.52227 112.913 9.62359C112.657 9.72491 112.424 9.87883 112.231 10.0754C112.036 10.2724 111.884 10.5077 111.783 10.7663C111.683 11.025 111.638 11.3016 111.649 11.5787C111.638 11.8559 111.683 12.1326 111.783 12.3914C111.883 12.6502 112.036 12.8855 112.231 13.0826C112.424 13.2791 112.657 13.4329 112.913 13.5341C113.169 13.6353 113.444 13.6817 113.719 13.6702C114.497 13.6596 115.24 13.3449 115.789 12.7937L115.856 12.8611V14.2777C115.233 14.7315 114.479 14.9684 113.71 14.952C111.64 14.952 110.238 13.439 110.238 11.5787C110.238 9.71902 111.64 8.20546 113.71 8.20546C114.479 8.18902 115.233 8.42592 115.856 8.87972V10.297L115.789 10.3644V10.3644ZM123.066 14.0754C122.322 14.6055 121.441 14.9101 120.529 14.9526C120.078 14.9579 119.63 14.8734 119.212 14.7041C118.793 14.5342 118.412 14.2833 118.09 13.9656C117.767 13.6462 117.51 13.2666 117.333 12.8482C117.156 12.4288 117.062 11.9788 117.057 11.5235C117.057 9.69013 118.326 8.20546 120.262 8.20546C121.931 8.20546 123.066 9.69012 123.066 11.5113C123.069 11.6275 123.046 11.7425 122.999 11.8491L122.865 11.9165H118.421C118.498 12.4178 118.755 12.8738 119.145 13.1989C119.532 13.5219 120.025 13.6901 120.529 13.6709C121.458 13.6424 122.34 13.2553 122.989 12.5907L123.056 12.6582L123.066 14.0754V14.0754ZM121.731 10.837C121.689 10.4715 121.517 10.1333 121.247 9.88406C120.978 9.63617 120.628 9.49504 120.262 9.4872C119.856 9.47505 119.458 9.60192 119.134 9.84681C118.809 10.0932 118.576 10.4421 118.474 10.837H121.731V10.837Z" fill="white"/>
</svg>
