<svg width="40" height="48" viewBox="0 0 40 48" fill="none" xmlns="http://www.w3.org/2000/svg">
<path d="M8.26117 41.8969C8.45017 42.2336 8.67167 42.5023 8.92565 42.7032C9.18553 42.8981 9.472 42.9955 9.78504 42.9955C10.0095 42.9955 10.1896 42.9424 10.3255 42.8361C10.4672 42.7238 10.5381 42.5732 10.5381 42.3842C10.5381 42.2306 10.4968 42.1037 10.4141 42.0032C10.3314 41.9028 10.1985 41.8083 10.0154 41.7197C9.8382 41.6311 9.59898 41.5307 9.29775 41.4185C9.14419 41.3594 8.9729 41.2826 8.78389 41.1881C8.59488 41.0936 8.41178 40.9726 8.23459 40.8249C8.0633 40.6772 7.92154 40.4971 7.80932 40.2845C7.6971 40.0659 7.64099 39.806 7.64099 39.5048C7.64099 39.1327 7.73549 38.8167 7.9245 38.5568C8.11941 38.291 8.3793 38.0872 8.70415 37.9455C9.03492 37.8037 9.40112 37.7329 9.80276 37.7329C10.2221 37.7329 10.5824 37.8008 10.8836 37.9366C11.1849 38.0725 11.4359 38.2438 11.6367 38.4505C11.8375 38.6572 11.9911 38.8669 12.0974 39.0795L10.9545 39.7174C10.8187 39.493 10.6562 39.3158 10.4672 39.1858C10.2782 39.05 10.0626 38.9821 9.82048 38.9821C9.60784 38.9821 9.44542 39.0293 9.33319 39.1238C9.22688 39.2124 9.17372 39.3246 9.17372 39.4605C9.17372 39.6731 9.29185 39.8474 9.52811 39.9832C9.77027 40.1132 10.1069 40.2549 10.5381 40.4085C10.8275 40.5089 11.0904 40.6447 11.3266 40.816C11.5688 40.9814 11.7608 41.1881 11.9025 41.4362C12.0502 41.6784 12.124 41.9708 12.124 42.3133C12.124 42.7327 12.0147 43.09 11.7962 43.3854C11.5777 43.6748 11.2912 43.8963 10.9368 44.0498C10.5883 44.1975 10.2192 44.2713 9.82934 44.2713C9.4277 44.2713 9.05264 44.2005 8.70415 44.0587C8.36158 43.911 8.06035 43.7161 7.80046 43.474C7.54648 43.2259 7.35157 42.9512 7.21572 42.65L8.26117 41.8969ZM18.8751 41.4096L20.08 37.8746H21.8608L19.1763 44.4397L17.1741 40.7097L15.1806 44.4397L12.4961 37.8746H14.2769L15.4907 41.4096L17.1741 37.5645L18.8751 41.4096ZM25.5258 44.0764L24.9411 42.8804H22.9742L22.3983 44.0764H20.6972L23.9665 37.4848L27.2269 44.0764H25.5258ZM23.9665 40.1604L23.2754 41.7374H24.6487L23.9665 40.1604ZM27.8767 37.8746H30.0297C30.8211 37.8746 31.4206 38.0548 31.8282 38.4151C32.2357 38.7753 32.4395 39.2715 32.4395 39.9035C32.4395 40.5296 32.2357 41.0257 31.8282 41.3919C31.4206 41.7522 30.8211 41.9324 30.0297 41.9324H29.374V44.0764H27.8767V37.8746ZM30.0297 39.1061H29.374V40.692H30.0297C30.3309 40.692 30.5671 40.6241 30.7384 40.4882C30.9097 40.3524 30.9954 40.1575 30.9954 39.9035C30.9954 39.6436 30.9097 39.4457 30.7384 39.3099C30.5671 39.174 30.3309 39.1061 30.0297 39.1061Z" fill="#7F8FA9"/>
<path opacity="0.35" d="M31.8525 17.4124L22.9446 8.50447L24.9873 6.46184C25.726 5.72313 25.2068 4.45987 24.1618 4.45444L16.734 4.4192C16.5095 4.41831 16.287 4.46187 16.0794 4.54738C15.8718 4.63289 15.6832 4.75865 15.5244 4.91742C15.3657 5.07619 15.2399 5.26481 15.1544 5.47242C15.0689 5.68003 15.0253 5.90252 15.0262 6.12705L15.0614 13.5548C15.0669 14.5985 16.3301 15.119 17.0688 14.3803L19.1115 12.3376L28.0194 21.2455C28.2694 21.5044 28.5686 21.711 28.8993 21.853C29.23 21.9951 29.5857 22.0699 29.9457 22.073C30.3056 22.0761 30.6626 22.0075 30.9958 21.8712C31.3289 21.7349 31.6316 21.5336 31.8861 21.2791C32.1406 21.0246 32.3419 20.7219 32.4782 20.3888C32.6145 20.0556 32.6831 19.6986 32.68 19.3387C32.6769 18.9787 32.6021 18.623 32.46 18.2923C32.318 17.9616 32.1114 17.6624 31.8525 17.4124Z" fill="#F7C337"/>
<path d="M6.33242 18.5346L15.2403 27.4425L13.1977 29.4852C12.459 30.2239 12.9794 31.4871 14.0231 31.4926L21.4509 31.5278C21.6754 31.5287 21.8979 31.4851 22.1055 31.3996C22.3131 31.3141 22.5017 31.1883 22.6605 31.0296C22.8193 30.8708 22.945 30.6822 23.0306 30.4746C23.1161 30.267 23.1596 30.0445 23.1587 29.8199L23.1235 22.3922C23.1181 21.3472 21.8548 20.828 21.1161 21.5667L19.0735 23.6094L10.1656 14.7015C9.9155 14.4426 9.61638 14.236 9.28564 14.094C8.9549 13.9519 8.59919 13.8771 8.23924 13.874C7.87929 13.8709 7.52233 13.9394 7.18917 14.0758C6.85602 14.2121 6.55334 14.4133 6.29881 14.6679C6.04428 14.9224 5.84299 15.2251 5.70669 15.5582C5.57039 15.8914 5.5018 16.2484 5.50492 16.6083C5.50805 16.9682 5.58283 17.324 5.72491 17.6547C5.86698 17.9854 6.0735 18.2846 6.33242 18.5346Z" fill="#F7C337"/>
</svg>
